<svg width="146" height="30" viewBox="0 0 146 30" fill="none" xmlns="http://www.w3.org/2000/svg">
<path d="M34.0896 7.12715C35.0462 7.12715 35.8217 6.35164 35.8217 5.39499C35.8217 4.43835 35.0462 3.66284 34.0896 3.66284C33.1329 3.66284 32.3574 4.43835 32.3574 5.39499C32.3574 6.35164 33.1329 7.12715 34.0896 7.12715Z" fill="#87CAAC"/>
<path d="M8.5783 29.1274C8.5783 29.1274 -0.354953 29.9228 0.0109406 20.6224C0.378132 11.3206 9.00647 0 9.00647 0C9.00647 0 16.9614 9.60664 16.288 20.1319C15.6146 30.6572 8.5783 29.1274 8.5783 29.1274Z" fill="#1EAC4B"/>
<path d="M6.0039 27.6535C6.0039 27.6535 -2.0704 23.6831 3.67879 15.1132C9.4267 6.54324 23.3916 0.43335 23.3916 0.43335C23.3916 0.43335 24.5516 13.6885 17.828 23.2498C11.1031 32.811 6.0039 27.6522 6.0039 27.6522V27.6535Z" fill="#6CBB5A"/>
<path d="M4.34304 25.3479C4.34304 25.3479 -0.266956 17.6343 9.33061 13.5316C18.9282 9.42893 34.0894 11.8475 34.0894 11.8475C34.0894 11.8475 29.9478 24.2281 18.9788 28.637C8.00976 33.0459 4.34304 25.3479 4.34304 25.3479Z" fill="#AACF52"/>
<path d="M60.7863 4.97114L58.2531 25.6612C58.2131 26.0013 57.7809 26.1214 57.5688 25.8533L46.1953 11.3342C45.9831 11.0661 45.5509 11.1862 45.5109 11.5263L43.8741 24.8288C43.8501 25.0209 43.686 25.1689 43.4899 25.1689H41.2088C40.9767 25.1689 40.7966 24.9648 40.8247 24.7367L43.3459 4.33884C43.3859 3.99867 43.8181 3.87861 44.0302 4.14674L55.4037 18.6378C55.6158 18.9059 56.048 18.7858 56.088 18.4457L57.7528 4.8791C57.7769 4.68701 57.9409 4.53893 58.137 4.53893H60.4061C60.6382 4.53893 60.8183 4.74303 60.7903 4.97114H60.7863Z" fill="#85B83A"/>
<path d="M77.2583 13.015L75.8056 24.8287C75.7816 25.0208 75.6175 25.1689 75.4214 25.1689H73.2483C73.0162 25.1689 72.8361 24.9648 72.8641 24.7367C72.9042 24.4085 72.536 24.1804 72.2638 24.3725C71.2233 25.1009 70.1548 25.465 69.0543 25.465C67.3895 25.465 66.0288 24.9008 64.9803 23.7682C63.9278 22.6357 63.4036 21.171 63.4036 19.3741C63.4036 17.2971 64.0039 15.5963 65.2084 14.2716C66.429 12.943 67.9898 12.2827 69.8987 12.2827C70.7991 12.2827 71.5635 12.4307 72.1958 12.7229C72.66 12.935 73.1283 13.2591 73.6045 13.6953C73.8406 13.9074 74.2128 13.7794 74.2528 13.4632L74.3168 12.931C74.3409 12.7389 74.5049 12.5908 74.701 12.5908H76.8781C77.1102 12.5908 77.2903 12.7949 77.2623 13.023L77.2583 13.015ZM73.7166 18.5137C73.7166 17.4011 73.3964 16.4967 72.7561 15.8004C72.1158 15.096 71.2874 14.7438 70.2709 14.7438C69.1664 14.7438 68.2419 15.1761 67.4935 16.0405C66.7452 16.9129 66.373 17.9814 66.373 19.246C66.373 20.3506 66.6852 21.255 67.3095 21.9593C67.9338 22.6637 68.7341 23.0159 69.7146 23.0159C70.7991 23.0159 71.7396 22.5756 72.532 21.6912C73.3244 20.7908 73.7206 19.7303 73.7206 18.5097L73.7166 18.5137Z" fill="#85B83A"/>
<path d="M86.4068 15.6603L85.2742 24.8287C85.2502 25.0208 85.0862 25.1649 84.8901 25.1649H82.713C82.4809 25.1649 82.3008 24.9608 82.3288 24.7327L83.4374 15.7523C83.4654 15.5242 83.2853 15.3201 83.0532 15.3201H82.2528C82.0207 15.3201 81.8406 15.116 81.8686 14.8879L82.1087 12.9189C82.1327 12.7269 82.2968 12.5788 82.4929 12.5788H83.4814C83.6775 12.5788 83.8416 12.4347 83.8656 12.2426L84.5019 7.08012C84.5259 6.88803 84.69 6.74396 84.8861 6.74396H87.0631C87.2952 6.74396 87.4753 6.94806 87.4473 7.17617L86.831 12.1506C86.803 12.3787 86.9831 12.5828 87.2152 12.5828H89.0681C89.3002 12.5828 89.4803 12.7869 89.4523 13.015L89.2122 14.9839C89.1881 15.176 89.0241 15.3241 88.828 15.3241H86.783C86.5869 15.3241 86.4228 15.4682 86.3988 15.6603H86.4068Z" fill="#85B83A"/>
<path d="M95.179 19.9303C94.9469 19.9303 94.7668 20.1344 94.7948 20.3625C94.8829 21.0949 95.195 21.7112 95.7313 22.2114C96.3796 22.8077 97.208 23.1079 98.2165 23.1079C99.4811 23.1079 100.478 22.6757 101.206 21.8072C101.326 21.6632 101.534 21.6352 101.698 21.7272L103.207 22.5596C103.415 22.6757 103.475 22.9478 103.327 23.1319C102.647 23.9763 101.95 24.5806 101.238 24.9408C100.418 25.361 99.3931 25.5691 98.1645 25.5691C96.2155 25.5691 94.6588 24.9968 93.5022 23.8442C92.3457 22.6957 91.7654 21.1589 91.7654 19.234C91.7654 17.3091 92.4017 15.5402 93.6743 14.1835C94.9389 12.8389 96.5397 12.1666 98.4686 12.1666C100.398 12.1666 101.814 12.7709 102.891 13.9834C103.987 15.204 104.536 16.8368 104.536 18.8858C104.536 19.0419 104.528 19.266 104.516 19.5581C104.508 19.7622 104.335 19.9263 104.131 19.9263H95.183L95.179 19.9303ZM101.066 17.5532C101.318 17.5532 101.502 17.3131 101.442 17.0689C101.038 15.4522 99.9974 14.6398 98.3205 14.6398C96.7478 14.6398 95.6713 15.4361 95.091 17.0329C94.9989 17.285 95.187 17.5532 95.4552 17.5532H101.066Z" fill="#85B83A"/>
<path d="M112.655 12.911C112.623 13.1751 112.924 13.3352 113.132 13.1751C113.944 12.5548 114.76 12.2466 115.581 12.2466C116.345 12.2466 117.054 12.4868 117.702 12.967C117.878 13.0991 117.914 13.3472 117.782 13.5193L116.365 15.3481C116.241 15.5082 116.013 15.5442 115.845 15.4282C115.397 15.112 114.949 14.956 114.5 14.956C114.128 14.956 113.796 15.028 113.512 15.1761C113.228 15.3241 112.98 15.5562 112.771 15.8724C112.563 16.1886 112.387 16.5968 112.251 17.093C112.115 17.5892 112.003 18.1895 111.923 18.8819L111.191 24.8207C111.167 25.0128 111.003 25.1569 110.807 25.1569H108.629C108.397 25.1569 108.217 24.9528 108.245 24.7247L109.698 12.911C109.722 12.7189 109.886 12.5708 110.082 12.5708H112.359C112.535 12.5708 112.671 12.7269 112.651 12.903L112.655 12.911Z" fill="#85B83A"/>
<path d="M145.143 13.015L143.691 24.8287C143.667 25.0208 143.502 25.1689 143.306 25.1689H141.133C140.901 25.1689 140.721 24.9648 140.749 24.7367C140.789 24.4085 140.421 24.1804 140.149 24.3725C139.108 25.1009 138.04 25.465 136.939 25.465C135.274 25.465 133.914 24.9008 132.865 23.7682C131.813 22.6357 131.289 21.171 131.289 19.3741C131.289 17.2971 131.889 15.5963 133.093 14.2716C134.314 12.943 135.875 12.2827 137.784 12.2827C138.684 12.2827 139.449 12.4307 140.081 12.7229C140.545 12.935 141.013 13.2591 141.49 13.6953C141.726 13.9074 142.098 13.7794 142.138 13.4632L142.202 12.931C142.226 12.7389 142.39 12.5908 142.586 12.5908H144.763C144.995 12.5908 145.175 12.7949 145.147 13.023L145.143 13.015ZM141.602 18.5137C141.602 17.4011 141.281 16.4967 140.641 15.8004C140.001 15.096 139.172 14.7438 138.156 14.7438C137.051 14.7438 136.127 15.1761 135.379 16.0405C134.63 16.9129 134.258 17.9814 134.258 19.246C134.258 20.3506 134.57 21.255 135.194 21.9593C135.819 22.6637 136.619 23.0159 137.6 23.0159C138.684 23.0159 139.625 22.5756 140.417 21.6912C141.209 20.7908 141.606 19.7303 141.606 18.5097L141.602 18.5137Z" fill="#85B83A"/>
<path d="M124.757 12.911C124.725 13.1751 125.025 13.3352 125.233 13.1751C126.046 12.5548 126.862 12.2466 127.683 12.2466C128.447 12.2466 129.155 12.4868 129.804 12.967C129.98 13.0991 130.016 13.3472 129.884 13.5193L128.467 15.3481C128.343 15.5082 128.115 15.5442 127.947 15.4282C127.499 15.112 127.05 14.956 126.602 14.956C126.23 14.956 125.898 15.028 125.614 15.1761C125.33 15.3241 125.081 15.5562 124.873 15.8724C124.665 16.1886 124.489 16.5968 124.353 17.093C124.213 17.5932 124.105 18.1895 124.025 18.8819L123.293 24.8207C123.269 25.0128 123.104 25.1569 122.908 25.1569H120.731C120.499 25.1569 120.319 24.9528 120.347 24.7247L121.8 12.911C121.824 12.7189 121.988 12.5708 122.184 12.5708H124.461C124.637 12.5708 124.773 12.7269 124.753 12.903L124.757 12.911Z" fill="#85B83A"/>
</svg>
