<svg width="30" height="30" viewBox="0 0 30 30" fill="none" xmlns="http://www.w3.org/2000/svg">
<mask id="mask0_1199_2923" style="mask-type:alpha" maskUnits="userSpaceOnUse" x="0" y="0" width="30" height="30">
<rect width="30" height="30" fill="#D9D9D9"/>
</mask>
<g mask="url(#mask0_1199_2923)">
<path d="M9.04379 26.9344C8.47004 26.9344 7.98379 26.7328 7.58504 26.3297C7.1865 25.9266 6.98723 25.437 6.98723 24.8609C6.98723 24.2849 7.18796 23.7969 7.58941 23.3969C7.99087 22.9967 8.47848 22.7966 9.05223 22.7966C9.62598 22.7966 10.1135 22.9981 10.5147 23.4012C10.9162 23.8044 11.1169 24.2939 11.1169 24.8697C11.1169 25.4457 10.9154 25.9339 10.5122 26.3341C10.1091 26.7343 9.61962 26.9344 9.04379 26.9344ZM21.1591 26.9344C20.5854 26.9344 20.0992 26.7328 19.7007 26.3297C19.3019 25.9266 19.1025 25.437 19.1025 24.8609C19.1025 24.2849 19.3033 23.7969 19.7047 23.3969C20.1062 22.9967 20.5938 22.7966 21.1675 22.7966C21.7413 22.7966 22.2289 22.9981 22.6304 23.4012C23.0316 23.8044 23.2322 24.2939 23.2322 24.8697C23.2322 25.4457 23.0308 25.9339 22.6279 26.3341C22.2247 26.7343 21.7351 26.9344 21.1591 26.9344ZM7.3541 6.87031L10.7341 13.9278H19.3741C19.4464 13.9278 19.5119 13.9098 19.5707 13.8738C19.6294 13.8377 19.6761 13.7876 19.7107 13.7234L23.2966 7.20687C23.3447 7.11854 23.3487 7.04031 23.3085 6.97219C23.2685 6.90427 23.2004 6.87031 23.1041 6.87031H7.3541ZM6.57379 5.29969H23.9175C24.4286 5.29969 24.8149 5.51937 25.0766 5.95875C25.3385 6.39812 25.3466 6.84458 25.101 7.29812L21.2047 14.3562C20.9976 14.7069 20.7293 14.9849 20.3997 15.1903C20.0701 15.3957 19.7125 15.4984 19.3269 15.4984H10.125L8.49191 18.5063C8.43316 18.6025 8.43254 18.7067 8.49004 18.8188C8.54754 18.931 8.63639 18.9872 8.7566 18.9872H23.2322V20.5575H8.89598C8.09348 20.5575 7.50598 20.2567 7.13348 19.655C6.76098 19.0533 6.75816 18.4141 7.12504 17.7372L9.06098 14.2259L4.39441 4.38313H2.04004V2.8125H5.3991L6.57379 5.29969Z" fill="#444444"/>
</g>
</svg>
