<svg width="32" height="32" viewBox="0 0 32 32" fill="none" xmlns="http://www.w3.org/2000/svg">
<mask id="mask0_1199_1992" style="mask-type:alpha" maskUnits="userSpaceOnUse" x="0" y="0" width="32" height="32">
<rect width="32" height="32" fill="#D9D9D9"/>
</mask>
<g mask="url(#mask0_1199_1992)">
<path d="M16 26.205L14.9897 25.2924C12.8137 23.3044 11.0137 21.6027 9.58967 20.1874C8.16589 18.7718 7.042 17.5235 6.218 16.4424C5.394 15.3613 4.81833 14.383 4.491 13.5077C4.16367 12.6326 4 11.7523 4 10.8667C4 9.17092 4.57611 7.74703 5.72833 6.59503C6.88033 5.44281 8.30422 4.8667 10 4.8667C11.1727 4.8667 12.2727 5.1667 13.3 5.7667C14.3273 6.3667 15.2273 7.23937 16 8.3847C16.7727 7.23937 17.6727 6.3667 18.7 5.7667C19.7273 5.1667 20.8273 4.8667 22 4.8667C23.6958 4.8667 25.1197 5.44281 26.2717 6.59503C27.4239 7.74703 28 9.17092 28 10.8667C28 11.7523 27.8363 12.6326 27.509 13.5077C27.1817 14.383 26.606 15.3613 25.782 16.4424C24.958 17.5235 23.8383 18.7718 22.423 20.1874C21.0077 21.6027 19.2034 23.3044 17.0103 25.2924L16 26.205Z" fill="#C14D4D"/>
</g>
</svg>
