<svg width="32" height="33" viewBox="0 0 32 33" fill="none" xmlns="http://www.w3.org/2000/svg">
<mask id="mask0_1199_3106" style="mask-type:alpha" maskUnits="userSpaceOnUse" x="0" y="0" width="32" height="33">
<rect y="0.5" width="32" height="32" fill="#777777"/>
</mask>
<g mask="url(#mask0_1199_3106)">
<path d="M16 26.705L14.9897 25.7923C12.8137 23.8043 11.0137 22.1027 9.58967 20.6873C8.16589 19.2718 7.042 18.0234 6.218 16.9423C5.394 15.8612 4.81833 14.883 4.491 14.0077C4.16367 13.1326 4 12.2522 4 11.3667C4 9.67089 4.57611 8.247 5.72833 7.095C6.88033 5.94278 8.30422 5.36667 10 5.36667C11.1727 5.36667 12.2727 5.66667 13.3 6.26667C14.3273 6.86667 15.2273 7.73933 16 8.88467C16.7727 7.73933 17.6727 6.86667 18.7 6.26667C19.7273 5.66667 20.8273 5.36667 22 5.36667C23.6958 5.36667 25.1197 5.94278 26.2717 7.095C27.4239 8.247 28 9.67089 28 11.3667C28 12.2522 27.8363 13.1326 27.509 14.0077C27.1817 14.883 26.606 15.8612 25.782 16.9423C24.958 18.0234 23.8383 19.2718 22.423 20.6873C21.0077 22.1027 19.2034 23.8043 17.0103 25.7923L16 26.705ZM16 24.9C18.1333 22.9718 19.8889 21.3201 21.2667 19.945C22.6444 18.5697 23.7333 17.3764 24.5333 16.3653C25.3333 15.3542 25.8889 14.4586 26.2 13.6783C26.5111 12.8979 26.6667 12.1273 26.6667 11.3667C26.6667 10.0333 26.2222 8.92222 25.3333 8.03334C24.4444 7.14445 23.3333 6.7 22 6.7C20.9384 6.7 19.959 7.003 19.0617 7.609C18.1641 8.215 17.3607 9.12734 16.6513 10.346H15.3487C14.6222 9.11022 13.8146 8.19356 12.9257 7.596C12.0368 6.99867 11.0616 6.7 10 6.7C8.68378 6.7 7.57689 7.14445 6.67933 8.03334C5.782 8.92222 5.33333 10.0333 5.33333 11.3667C5.33333 12.1273 5.48889 12.8979 5.8 13.6783C6.11111 14.4586 6.66667 15.3542 7.46667 16.3653C8.26667 17.3764 9.35556 18.5653 10.7333 19.932C12.1111 21.2987 13.8667 22.9547 16 24.9Z" fill="#C14D4D"/>
</g>
</svg>
