<svg width="30" height="30" viewBox="0 0 30 30" fill="none" xmlns="http://www.w3.org/2000/svg">
<mask id="mask0_1199_2919" style="mask-type:alpha" maskUnits="userSpaceOnUse" x="0" y="0" width="30" height="30">
<rect width="30" height="30" fill="#D9D9D9"/>
</mask>
<g mask="url(#mask0_1199_2919)">
<path d="M7.34281 21.9329C8.52927 21.0962 9.74312 20.4439 10.9844 19.976C12.2256 19.5081 13.5642 19.2741 15 19.2741C16.4358 19.2741 17.7765 19.5081 19.0219 19.976C20.2675 20.4439 21.4835 21.0962 22.67 21.9329C23.5348 20.9462 24.1901 19.8755 24.6359 18.7207C25.0816 17.5657 25.3044 16.3255 25.3044 15.0001C25.3044 12.1107 24.3094 9.6709 22.3194 7.68069C20.3292 5.69069 17.8894 4.69569 15 4.69569C12.1106 4.69569 9.67083 5.69069 7.68062 7.68069C5.69062 9.6709 4.69562 12.1107 4.69562 15.0001C4.69562 16.3255 4.92062 17.5657 5.37062 18.7207C5.82062 19.8755 6.47802 20.9462 7.34281 21.9329ZM14.9956 15.7854C13.866 15.7854 12.915 15.3977 12.1425 14.6222C11.3702 13.8468 10.9841 12.8943 10.9841 11.7647C10.9841 10.6354 11.3718 9.68444 12.1472 8.91194C12.9224 8.13944 13.8748 7.75319 15.0044 7.75319C16.134 7.75319 17.085 8.14089 17.8575 8.91631C18.6298 9.69173 19.0159 10.6442 19.0159 11.7738C19.0159 12.9032 18.6282 13.8541 17.8528 14.6266C17.0776 15.3991 16.1252 15.7854 14.9956 15.7854ZM15.0097 26.8751C13.3628 26.8751 11.8177 26.565 10.3744 25.9447C8.93125 25.3245 7.6724 24.4765 6.59781 23.4007C5.52302 22.3249 4.67552 21.0676 4.05531 19.6288C3.4351 18.1901 3.125 16.6466 3.125 14.9985C3.125 13.3506 3.4351 11.8077 4.05531 10.3697C4.67552 8.93204 5.52354 7.67527 6.59937 6.59944C7.67521 5.5236 8.9325 4.67558 10.3712 4.05537C11.81 3.43517 13.3534 3.12506 15.0016 3.12506C16.6495 3.12506 18.1924 3.43517 19.6303 4.05537C21.068 4.67558 22.3248 5.5236 23.4006 6.59944C24.4765 7.67527 25.3245 8.93235 25.9447 10.3707C26.5649 11.8088 26.875 13.3487 26.875 14.9904C26.875 16.6372 26.5649 18.1824 25.9447 19.6257C25.3245 21.0688 24.4765 22.3277 23.4006 23.4022C22.3248 24.477 21.0677 25.3245 19.6294 25.9447C18.1912 26.565 16.6514 26.8751 15.0097 26.8751ZM15 25.3044C16.1506 25.3044 17.2771 25.1209 18.3794 24.7538C19.4817 24.3865 20.501 23.819 21.4375 23.0513C20.501 22.3526 19.4902 21.8101 18.405 21.4238C17.3198 21.0376 16.1848 20.8444 15 20.8444C13.8152 20.8444 12.6782 21.0356 11.5891 21.4179C10.4997 21.8002 9.49354 22.3446 8.57062 23.0513C9.50167 23.819 10.5183 24.3865 11.6206 24.7538C12.7229 25.1209 13.8494 25.3044 15 25.3044ZM15.0012 14.2147C15.7067 14.2147 16.2904 13.9834 16.7525 13.5207C17.2146 13.0578 17.4456 12.4736 17.4456 11.7682C17.4456 11.0628 17.2142 10.479 16.7512 10.0169C16.2885 9.55485 15.7044 9.32381 14.9987 9.32381C14.2933 9.32381 13.7096 9.55517 13.2475 10.0179C12.7854 10.4808 12.5544 11.065 12.5544 11.7704C12.5544 12.4758 12.7858 13.0595 13.2487 13.5216C13.7115 13.9837 14.2956 14.2147 15.0012 14.2147Z" fill="#444444"/>
</g>
</svg>
