<svg width="30" height="30" viewBox="0 0 30 30" fill="none" xmlns="http://www.w3.org/2000/svg">
<g clip-path="url(#clip0_486_1600)">
<mask id="mask0_486_1600" style="mask-type:alpha" maskUnits="userSpaceOnUse" x="0" y="0" width="30" height="30">
<path d="M30 0H0V30H30V0Z" fill="#D9D9D9"/>
</mask>
<g mask="url(#mask0_486_1600)">
<path d="M24.4776 25.1876L16.5338 17.2436C15.913 17.7936 15.1924 18.215 14.372 18.508C13.5518 18.8009 12.727 18.9473 11.8976 18.9473C9.90255 18.9473 8.21415 18.2578 6.83227 16.8786C5.4506 15.4997 4.75977 13.8171 4.75977 11.8311C4.75977 9.84503 5.44925 8.16121 6.82821 6.77954C8.2074 5.39786 9.88958 4.70703 11.8748 4.70703C13.86 4.70703 15.5465 5.39693 16.9345 6.77672C18.3221 8.15648 19.016 9.83911 19.016 11.8245C19.016 12.6862 18.8621 13.5275 18.5545 14.3486C18.2468 15.1697 17.8258 15.882 17.2916 16.4858L25.2404 24.4089L24.4776 25.1876ZM11.8926 17.8895C13.5936 17.8895 15.0299 17.3053 16.2014 16.1367C17.3728 14.9682 17.9585 13.5316 17.9585 11.8271C17.9585 10.1225 17.3728 8.68591 16.2014 7.51733C15.0299 6.3488 13.5936 5.76453 11.8926 5.76453C10.1891 5.76453 8.75063 6.3488 7.57725 7.51733C6.40393 8.68591 5.81727 10.1225 5.81727 11.8271C5.81727 13.5316 6.40393 14.9682 7.57725 16.1367C8.75063 17.3053 10.1891 17.8895 11.8926 17.8895Z" fill="#444444"/>
</g>
</g>
<defs>
<clipPath id="clip0_486_1600">
<rect width="30" height="30" fill="white"/>
</clipPath>
</defs>
</svg>
