<svg width="40" height="40" viewBox="0 0 40 40" fill="none" xmlns="http://www.w3.org/2000/svg">
<mask id="mask0_1411_2750" style="mask-type:alpha" maskUnits="userSpaceOnUse" x="0" y="0" width="40" height="40">
<rect width="40" height="40" fill="#D9D9D9"/>
</mask>
<g mask="url(#mask0_1411_2750)">
<path d="M32.6367 33.5833L22.045 22.9913C21.2172 23.7246 20.2564 24.2865 19.1625 24.6771C18.0689 25.0676 16.9692 25.2629 15.8633 25.2629C13.2033 25.2629 10.9521 24.3435 9.10959 22.5046C7.26736 20.666 6.34625 18.4226 6.34625 15.7746C6.34625 13.1265 7.26556 10.8814 9.10417 9.03917C10.9431 7.19694 13.186 6.27583 15.8329 6.27583C18.4799 6.27583 20.7286 7.19569 22.5792 9.03542C24.4294 10.8751 25.3546 13.1186 25.3546 15.7658C25.3546 16.9147 25.1494 18.0365 24.7392 19.1313C24.3289 20.226 23.7676 21.1758 23.0554 21.9808L33.6538 32.545L32.6367 33.5833ZM15.8567 23.8525C18.1247 23.8525 20.0397 23.0735 21.6017 21.5154C23.1636 19.9574 23.9446 18.0419 23.9446 15.7692C23.9446 13.4964 23.1636 11.581 21.6017 10.0229C20.0397 8.46486 18.1247 7.68583 15.8567 7.68583C13.5853 7.68583 11.6674 8.46486 10.1029 10.0229C8.53847 11.581 7.75625 13.4964 7.75625 15.7692C7.75625 18.0419 8.53847 19.9574 10.1029 21.5154C11.6674 23.0735 13.5853 23.8525 15.8567 23.8525Z" fill="#444444"/>
</g>
</svg>
