<svg width="32" height="32" viewBox="0 0 32 32" fill="none" xmlns="http://www.w3.org/2000/svg">
<mask id="mask0_1333_4016" style="mask-type:alpha" maskUnits="userSpaceOnUse" x="0" y="0" width="32" height="32">
<rect width="32" height="32" fill="#D9D9D9"/>
</mask>
<g mask="url(#mask0_1333_4016)">
<path d="M15.436 20.8393V8.85301L12.1606 12.111L11.352 11.3147L16 6.66667L20.648 11.3147L19.8393 12.111L16.564 8.85301V20.8393H15.436ZM8.61529 25.3333C8.06907 25.3333 7.60774 25.1451 7.23129 24.7687C6.85485 24.3922 6.66663 23.9309 6.66663 23.3847V19.9163H7.79496V23.3847C7.79496 23.5898 7.8804 23.7778 8.05129 23.9487C8.22218 24.1196 8.41018 24.205 8.61529 24.205H23.3846C23.5897 24.205 23.7777 24.1196 23.9486 23.9487C24.1195 23.7778 24.205 23.5898 24.205 23.3847V19.9163H25.3333V23.3847C25.3333 23.9309 25.1451 24.3922 24.7686 24.7687C24.3922 25.1451 23.9308 25.3333 23.3846 25.3333H8.61529Z" fill="#333333"/>
</g>
</svg>
